<svg version="1.2" xmlns="http://www.w3.org/2000/svg" viewBox="0 0 977 152" width="977" height="152"><style></style><path  d="m75.8 78.2l-18.3-49.5-18.3 49.5zm-64 36.8l38.1-99.6h15.2l38 99.6h-14l-9.1-25.6h-44.9l-9 25.6zm60.3-36.8l-18.3-49.5-18.3 49.5zm-64 36.8l38.1-99.6h15.2l38 99.6h-14l-9.1-25.6h-44.9l-9.1 25.6zm170.5-45.1v45.1h-12.3v-44.7q0-10.6-4.1-15.9-4.2-5.2-12.4-5.2-10 0-15.7 6.3-5.8 6.3-5.8 17.3v42.2h-12.3v-74.7h12.3v11.6q4.4-6.7 10.4-10.1 6-3.3 13.8-3.3 12.9 0 19.5 8 6.6 7.9 6.6 23.4zm-3.6 0v45.1h-12.3v-44.7q0-10.6-4.1-15.9-4.2-5.2-12.4-5.2-10 0-15.7 6.3-5.8 6.3-5.8 17.3v42.2h-12.3v-74.7h12.3v11.6q4.4-6.7 10.4-10.1 6-3.3 13.8-3.3 12.9 0 19.5 8 6.6 7.9 6.6 23.4zm76.7 6.9q0-13.4-5.6-20.7-5.4-7.3-15.4-7.3-9.8 0-15.4 7.3-5.5 7.3-5.5 20.7 0 13.2 5.5 20.6 5.6 7.3 15.4 7.3 10 0 15.4-7.3 5.6-7.4 5.6-20.6zm12.3-36.5v65.4q0 19.1-8.5 28.4-8.5 9.3-26 9.3-6.4 0-12.2-0.9-5.7-1-11.1-3v-12q5.4 3 10.7 4.4 5.2 1.4 10.7 1.4 12.1 0 18.1-6.3 6-6.3 6-19.1v-6q-3.8 6.6-9.8 9.8-5.9 3.3-14.2 3.3-13.7 0-22.1-10.5-8.4-10.4-8.4-27.7 0-17.4 8.4-27.8 8.4-10.5 22.1-10.5 8.3 0 14.2 3.2 6 3.3 9.8 9.9v-11.3zm-15.9 36.5q0-13.4-5.5-20.7-5.5-7.3-15.4-7.3-9.9 0-15.5 7.3-5.4 7.3-5.4 20.7 0 13.2 5.4 20.6 5.6 7.3 15.5 7.3 9.9 0 15.4-7.3 5.5-7.4 5.5-20.6zm12.3-36.5v65.4q0 19.1-8.5 28.4-8.5 9.3-25.9 9.3-6.5 0-12.3-0.9-5.7-1-11.1-3v-12q5.4 3 10.7 4.4 5.2 1.4 10.7 1.4 12.1 0 18.1-6.3 6-6.3 6-19.1v-6q-3.8 6.6-9.7 9.8-6 3.3-14.2 3.3-13.8 0-22.2-10.5-8.4-10.4-8.4-27.7 0-17.4 8.4-27.8 8.4-10.5 22.2-10.5 8.2 0 14.2 3.2 5.9 3.3 9.7 9.9v-11.3zm92.3 34.3v6h-56.5q0.8 12.7 7.6 19.3 6.9 6.6 19.1 6.6 7.1 0 13.7-1.7 6.6-1.7 13.2-5.2v11.6q-6.6 2.8-13.6 4.3-6.9 1.4-14 1.4-17.9 0-28.4-10.4-10.4-10.4-10.4-28.1 0-18.4 9.9-29.1 9.9-10.8 26.7-10.8 15.1 0 23.8 9.7 8.9 9.7 8.9 26.4zm-56.1-3.6h43.8q-0.2-10.1-5.7-16.1-5.5-6-14.5-6-10.3 0-16.5 5.8-6.2 5.8-7.1 16.3zm52.4 3.6v6h-56.4q0.8 12.7 7.6 19.3 6.9 6.6 19.1 6.6 7.1 0 13.7-1.7 6.6-1.7 13.2-5.2v11.6q-6.6 2.8-13.6 4.3-6.9 1.4-14 1.4-17.9 0-28.4-10.4-10.4-10.4-10.4-28.1 0-18.4 9.9-29.1 9.9-10.8 26.7-10.8 15.1 0 23.8 9.7 8.8 9.7 8.8 26.4zm-56-3.6h43.8q-0.2-10.1-5.7-16.1-5.5-6-14.5-6-10.3 0-16.5 5.8-6.2 5.8-7.1 16.3zm79.3 44v-103.8h12.2v103.8zm-3.6 0v-103.8h12.3v103.8zm87.2-37.6h-12.2q-14.9 0-20.6 3.4-5.8 3.4-5.8 11.7 0 6.5 4.3 10.4 4.3 3.8 11.7 3.8 10.2 0 16.4-7.2 6.2-7.3 6.2-19.3zm12.3-5.1v42.6h-12.3v-11.3q-4.2 6.8-10.5 10.1-6.3 3.2-15.3 3.2-11.5 0-18.3-6.4-6.8-6.5-6.8-17.3 0-12.6 8.5-19 8.4-6.4 25.2-6.4h17.2v-1.2q0-8.5-5.6-13.1-5.6-4.7-15.6-4.7-6.4 0-12.5 1.6-6.1 1.5-11.7 4.6v-11.4q6.8-2.6 13.1-3.9 6.3-1.3 12.3-1.3 16.2 0 24.3 8.4 8 8.4 8 25.5zm-15.9 5.1h-12.2q-14.9 0-20.6 3.4-5.8 3.4-5.8 11.6 0 6.5 4.3 10.4 4.3 3.8 11.7 3.8 10.2 0 16.4-7.2 6.2-7.3 6.2-19.3zm12.3-5.1v42.7h-12.3v-11.4q-4.2 6.8-10.5 10.1-6.3 3.2-15.3 3.2-11.5 0-18.3-6.4-6.8-6.5-6.8-17.3 0-12.6 8.5-19 8.4-6.4 25.2-6.4h17.2v-1.2q0-8.5-5.6-13.1-5.6-4.6-15.6-4.6-6.4 0-12.5 1.5-6.1 1.5-11.7 4.6v-11.3q6.8-2.6 13.1-3.9 6.3-1.3 12.3-1.3 16.2 0 24.2 8.4 8.1 8.4 8.1 25.4zm146.3-49.3v14.2q-6.8-6.3-14.5-9.4-7.7-3.2-16.4-3.2-17.1 0-26.1 10.5-9.1 10.4-9.1 30.2 0 19.6 9.1 30.1 9 10.4 26.1 10.4 8.7 0 16.4-3.1 7.7-3.1 14.5-9.5v14.1q-7.1 4.8-15 7.2-7.9 2.4-16.7 2.4-22.6 0-35.6-13.8-13-13.9-13-37.8 0-24 13-37.9 13-13.8 35.6-13.8 8.9 0 16.8 2.4 8 2.3 14.9 7zm-3.6 0v14.2q-6.8-6.3-14.5-9.4-7.7-3.2-16.4-3.2-17.1 0-26.1 10.5-9.1 10.4-9.1 30.2 0 19.6 9.1 30.1 9 10.4 26.1 10.4 8.7 0 16.4-3.1 7.7-3.1 14.5-9.5v14.1q-7.1 4.8-15 7.2-7.9 2.4-16.7 2.4-22.6 0-35.6-13.8-13-13.9-13-37.8 0-24 13-37.9 13-13.8 35.6-13.8 8.9 0 16.8 2.4 8 2.3 14.9 7zm66.6 16.1v12.6q-2-1.2-4.5-1.7-2.4-0.6-5.3-0.6-10.5 0-16.1 6.8-5.5 6.7-5.5 19.4v39.4h-12.3v-74.7h12.3v11.6q3.9-6.8 10.1-10.1 6.2-3.3 15.1-3.3 1.2 0 2.8 0.2 1.5 0.1 3.4 0.4zm-3.6 0v12.6q-2-1.2-4.5-1.7-2.4-0.6-5.3-0.6-10.5 0-16.1 6.8-5.5 6.7-5.5 19.4v39.4h-12.3v-74.7h12.3v11.6q3.9-6.8 10.1-10.1 6.2-3.3 15.1-3.3 1.2 0 2.8 0.2 1.5 0.1 3.4 0.4zm41.9 9.8q-9.9 0-15.6 7.7-5.7 7.7-5.7 21.1 0 13.4 5.6 21.1 5.8 7.7 15.7 7.7 9.8 0 15.6-7.7 5.7-7.8 5.7-21.1 0-13.3-5.7-21-5.8-7.8-15.6-7.8zm0-10.4q16 0 25.2 10.4 9.1 10.4 9.1 28.8 0 18.3-9.1 28.8-9.2 10.4-25.2 10.4-16.1 0-25.2-10.4-9.1-10.5-9.1-28.8 0-18.4 9.1-28.8 9.1-10.4 25.2-10.4zm-3.6 10.4q-9.9 0-15.6 7.7-5.7 7.7-5.7 21.1 0 13.4 5.6 21.1 5.8 7.7 15.7 7.7 9.8 0 15.6-7.7 5.7-7.8 5.7-21.1 0-13.3-5.7-21-5.8-7.8-15.6-7.8zm0-10.4q16 0 25.2 10.4 9.1 10.4 9.1 28.8 0 18.3-9.1 28.8-9.2 10.4-25.2 10.4-16.1 0-25.2-10.4-9.1-10.5-9.1-28.8 0-18.4 9.1-28.8 9.1-10.4 25.2-10.4zm70.1 76.5l-19.5-74.7h12.2l15.4 58.3 15.3-58.3h14.4l15.4 58.3 15.3-58.3h12.2l-19.5 74.7h-14.5l-16.1-61.3-16.1 61.3zm-3.6 0l-19.6-74.7h12.3l15.4 58.3 15.2-58.3h14.5l15.4 58.3 15.2-58.3h12.3l-19.5 74.7h-14.5l-16.1-61.3-16.1 61.3zm166.3-40.5v6h-56.5q0.8 12.7 7.6 19.4 6.9 6.6 19.1 6.6 7.1 0 13.7-1.7 6.7-1.8 13.2-5.2v11.6q-6.6 2.8-13.5 4.2-7 1.5-14.1 1.5-17.9 0-28.4-10.4-10.4-10.4-10.4-28.2 0-18.3 9.9-29 9.9-10.8 26.7-10.8 15.1 0 23.9 9.7 8.8 9.7 8.8 26.3zm-56.1-3.5l43.8-0.1q-0.1-10-5.7-16-5.5-6-14.5-6-10.3 0-16.5 5.8-6.1 5.8-7.1 16.3zm52.5 3.5v6h-56.5q0.8 12.7 7.6 19.4 6.9 6.6 19.1 6.6 7.1 0 13.7-1.7 6.7-1.8 13.2-5.2v11.6q-6.6 2.8-13.6 4.2-6.9 1.5-14 1.5-17.9 0-28.4-10.4-10.4-10.4-10.4-28.2 0-18.3 9.9-29 9.9-10.8 26.7-10.8 15.1 0 23.9 9.7 8.8 9.7 8.8 26.3zm-56.1-3.5l43.8-0.1q-0.1-10-5.7-16-5.5-6-14.5-6-10.3 0-16.5 5.8-6.1 5.8-7.1 16.3z"/></svg>